<svg version="1.2" xmlns="http://www.w3.org/2000/svg" viewBox="0 0 3636 3433" width="3636" height="3433"><style>.a{fill:#7f7f7f}.b{fill:#500}</style><path class="a" d="m2924.9 0c17.4 0 33.2 0.4 35.1 1 1.9 0.5 9.1 1.4 16 2.1 6.9 0.7 15.4 1.4 19 1.6 3.6 0.2 10.1 0.8 14.5 1.3 4.4 0.4 10.2 1.6 13 2.4 2.7 0.9 6.2 1.6 7.7 1.6 1.6 0 5.6 0.7 9 1.6 3.5 0.8 9.2 2.4 12.8 3.4 3.6 1.1 7.2 2 8 2 0.8 0 11.2 3.2 23 7 16.8 5.6 26 9.3 42 17.2 11.3 5.5 23.4 12 27 14.3 3.6 2.3 8.5 5.3 11 6.5 2.5 1.3 8.1 4.8 12.5 8 4.4 3.1 9.5 6.4 11.2 7.3 1.8 0.9 5 3.2 7 5.1 2.1 1.9 8.5 6.5 14.3 10.4 6.6 4.3 13.9 10.4 19.5 16.2 4.9 5 10.8 10.1 13 11.2 2.2 1.2 9.7 7.8 16.6 14.7 6.9 6.9 14 14.9 15.9 17.6 1.8 2.8 6.3 8.2 10 12 3.7 3.8 7.4 8.5 8.4 10.3 0.9 1.7 4.5 6.4 8.1 10.2 3.6 3.8 6.5 7.4 6.5 8 0 0.6 2.9 4.2 6.5 8 3.6 3.8 7.9 9.8 9.6 13.3 1.8 3.4 5 8.2 7.1 10.7 2.2 2.5 5.4 7.2 7 10.5 1.7 3.3 5.9 10.2 9.4 15.3 3.8 5.4 13.7 23.8 24.3 45 10.7 21.5 19.1 39.7 21.1 45.7 1.8 5.5 4.1 11.6 5 13.5 1 1.9 5.2 13.9 9.3 26.5 4.1 12.6 8.2 25.9 9.1 29.5 0.9 3.6 2.1 8.3 2.5 10.5 0.5 2.2 1.4 6.2 2.1 9 0.7 2.7 2.1 7.8 3.1 11.2 1 3.5 1.9 8.7 1.9 11.5 0 2.9 0.7 7.3 1.5 9.8 1 2.8 1.5 7.9 1.5 13.5 0 6.5 0.5 10.7 2 15 1.9 5.7 2 8.3 2 56-0.1 46.8-0.2 50.4-2 55.5-1.3 3.8-1.9 8.3-2 14.5 0 5-0.7 11.2-1.5 14-0.9 2.7-1.5 7.4-1.5 10.2 0 3.5-1.2 8.7-3.5 15.3-1.9 5.5-3.5 11-3.5 12.2-0.1 1.3-3.8 13.3-8.4 26.8-4.6 13.5-9.4 27.2-10.7 30.4-1.3 3.3-7 15.4-12.7 27-5.6 11.6-10.2 21.8-10.2 22.6 0 0.8 1.1 4.6 2.4 8.5 1.3 3.9 4 10.4 6.1 14.5 2.1 4.1 4.4 9.7 5.2 12.5 0.9 2.7 3.4 8.8 5.8 13.5 2.3 4.7 4.8 10.3 5.5 12.5 0.6 2.2 9.3 20.4 19.2 40.5 10 20.1 18.7 38.3 19.5 40.5 0.8 2.2 2.3 5.1 3.3 6.5 0.9 1.4 6 11 11.2 21.5 5.3 10.5 10.1 20.8 10.8 23 0.7 2.2 6.7 14.8 13.3 28 6.6 13.2 13 25.4 14.3 27 1.3 1.7 3.2 5.5 4.2 8.5 1.1 3 7.6 16.7 14.4 30.5 6.9 13.7 13.3 27.5 14.3 30.5 1 3 3.5 8.9 5.5 13 2 4.1 4.3 9.3 5 11.5 0.7 2.2 3.4 8.3 6 13.5 2.6 5.2 5.5 11.7 6.5 14.5 0.9 2.7 3.9 9.7 6.5 15.5 2.6 5.8 5.8 13 7 16 1.2 3 5.1 13.6 8.5 23.5 3.4 9.9 6.9 19.3 7.8 21 0.8 1.7 6.4 18.1 12.5 36.5 6 18.4 11.4 35.3 11.9 37.5 0.6 2.2 1.6 6.2 2.3 9 0.6 2.7 1.8 7.5 2.5 10.5 0.7 3 2.1 8.2 3 11.5 0.9 3.3 2 8.7 2.5 12 0.4 3.3 2 10.5 3.5 16 1.5 5.5 3.1 12 3.5 14.5 0.4 2.5 1.5 6.3 2.4 8.5 0.9 2.2 1.6 6.5 1.6 9.5 0 3 0.7 7.5 1.5 10 0.8 2.5 1.5 7.1 1.5 10.2 0 3.4 0.8 8 2 11 1.5 4.1 2 7.7 2 16 0 8.4 0.4 12 2 16 1.1 2.9 2 6.3 2 7.5 0 1.3-0.4 2.5-1 2.8-0.6 0.3-0.8 4.9-0.5 12.2 0.3 6.5 1 18.8 1.5 27.3 0.5 8.5 1.3 34.6 1.7 58 0.5 30.1 0.3 45-0.5 51-0.6 4.7-1.7 17.3-2.3 28-0.7 10.7-1.4 23.3-1.6 28-0.2 4.7-0.7 15.2-1.1 23.5-0.6 10.2-1.4 16.4-2.5 19.5-1 2.5-1.7 7-1.7 10 0 3-0.7 7.5-1.5 10-0.9 2.5-1.5 7.8-1.5 12 0 5.1-0.6 9.2-2 12.7-1.1 2.9-2 7-2 9 0 2.1-0.7 5.8-1.5 8.3-0.8 2.5-1.9 7.2-2.4 10.5-0.5 3.3-1.6 9.2-2.5 13-0.8 3.8-2.2 9-3.1 11.5-0.8 2.5-1.5 6.1-1.5 8 0 1.9-0.7 5.5-1.5 8-0.8 2.5-1.5 6.2-1.5 8.2 0 2.1-1.6 8.4-3.5 14-1.9 5.7-3.5 11.2-3.5 12.3 0 1.1-1.6 6.7-3.5 12.5-1.9 5.8-3.5 11.3-3.5 12.2 0 1-3.5 12.3-7.8 25-4.4 12.8-8.6 24.6-9.4 26.3-0.8 1.7-3.9 10.2-6.8 19-2.9 8.8-6.3 18-7.5 20.5-1.3 2.5-2.9 6.7-3.8 9.5-0.8 2.7-3.9 10-6.9 16-3 6-6.1 12.8-6.8 15-0.7 2.2-9.6 20.7-19.7 41-10.2 20.3-19.5 38.3-20.8 40-1.2 1.7-4.2 6.8-6.5 11.5-2.4 4.7-5.3 9.8-6.5 11.5-1.2 1.7-2.7 4.6-3.4 6.5-0.6 1.9-1.1 7.4-1.1 12.2 0 7.4-0.4 9.6-2.5 13.8-1.4 2.7-3.4 5.4-4.5 6-1.1 0.6-2.9 1-4 1-1.1 0-3.9-1-6.3-2.2-2.3-1.1-6.8-4.6-10-7.7-3.2-3.1-7.4-8.1-9.2-11.1-1.8-3-8.2-10.3-14.2-16.1-7.7-7.6-11.9-11-14.8-11.9-3-0.9-4.6-1-6.3-0.1-1.2 0.6-3.7 4.2-5.7 8.3-1.9 4-3.5 7.9-3.5 8.5 0 0.7-1.8 4.8-3.9 9-2.1 4.3-4.9 10.7-6.1 14.3-1.2 3.6-2.9 7.8-3.7 9.5-0.9 1.7-2.4 5.2-3.3 8-1 2.7-7.6 16.9-14.8 31.5-7.1 14.6-13.5 28.3-14.2 30.5-0.7 2.2-2.2 5.8-3.2 8-1.1 2.2-3.2 5.6-4.6 7.5-1.5 1.9-7.1 12.5-12.6 23.5-5.4 11-11.1 21.6-12.6 23.5-1.5 1.9-4.6 7.2-6.9 11.7-2.2 4.6-6 11.2-8.4 14.7-2.3 3.5-5.4 8.5-6.9 11.2-1.6 2.7-4.6 7.6-6.8 10.9-2.1 3.3-5.2 8.2-6.7 10.9-1.5 2.6-4.6 7.6-6.7 11-2.2 3.3-6.4 9.8-9.5 14.4-3.1 4.5-7.2 10.7-9.1 13.7-1.9 3-5.6 8.5-8.1 12.2-2.5 3.7-5.5 8.4-6.7 10.3-1.1 1.9-3 4.4-4.2 5.5-1.2 1.1-3.9 4.4-5.9 7.4-2 3-4.9 7.5-6.4 10-1.6 2.5-5 6.8-7.7 9.6-2.6 2.8-7.7 9.5-11.3 15-3.6 5.5-7.9 11.3-9.7 13-1.8 1.7-5.2 5.9-7.5 9.5-2.3 3.6-5.7 7.8-7.5 9.5-1.8 1.7-4.4 4.8-5.8 7-1.4 2.2-4.9 6.5-7.7 9.5-2.9 3-6 7.1-7 9-1 1.9-6.9 8.7-13.1 15-6.2 6.3-11.3 12.2-11.4 13 0 0.8-28.7 30.2-63.8 65.3-35 35.1-65.7 65.2-68.2 66.9-2.5 1.7-9.4 7.9-15.5 13.8-6.1 5.9-12.8 11.7-15 12.8-2.2 1.1-5.6 3.7-7.5 5.7-1.9 2-5.5 5.1-8 6.7-2.5 1.7-8.6 7-13.5 11.8-4.9 4.8-10.5 9.5-12.3 10.4-1.7 0.9-6.4 4.5-10.2 8.1-3.9 3.6-7.4 6.5-8 6.5-0.6 0-3.3 2-6 4.5-2.8 2.5-6.5 5.2-8.3 6.1-1.7 0.9-5.7 4-8.7 6.8-3 2.9-10 8.2-15.5 11.8-5.5 3.6-11.4 8-13 9.8-1.7 1.8-5.5 4.9-8.5 6.9-3 2-6.9 4.6-8.5 5.8-1.7 1.1-6 4-9.6 6.4-3.6 2.4-9.3 6.4-12.6 8.9-3.4 2.5-8.3 6-11 7.8-2.6 1.8-8 5.4-11.8 7.9-3.9 2.5-8.4 5.8-10 7.3-1.7 1.5-13 9.4-25.3 17.6-12.2 8.2-25 16.5-28.5 18.4-3.5 1.9-10.5 6.4-15.7 9.9-5.2 3.5-11.2 7.2-13.3 8.2-2 1.1-5.4 1.9-7.5 1.9-2 0-4.9-0.8-6.4-1.8-1.5-0.9-3.5-2.8-4.4-4.2-1-1.4-2.8-5.7-4.1-9.5-1.3-3.8-2.3-9.4-2.3-12.3 0-2.8-0.9-7.6-2-10.5-1.1-2.9-3.6-6.8-5.7-8.9-2.1-2-5-4.2-6.6-4.7-2-0.8-3.7-0.7-7 0.4-2.3 0.8-6.2 3.2-8.7 5.3-2.5 2.1-7.7 6-11.5 8.6-3.9 2.7-9.9 6.4-13.5 8.2-3.6 1.9-10.8 6.3-16 9.9-5.2 3.6-11.3 7.8-13.5 9.4-2.2 1.6-6 3.9-8.5 5.1-2.5 1.2-7.6 4.3-11.3 6.9-3.7 2.5-9.4 6.3-12.5 8.4-3.1 2-7.9 4.9-10.6 6.5-2.6 1.5-9.8 6-16 10-6.1 4.1-12.9 8.3-15.1 9.4-2.2 1.1-6.5 3.7-9.5 5.8-3 2-8 4.9-11 6.5-3 1.5-6.9 3.9-8.5 5.3-1.7 1.3-5.9 4-9.5 5.8-3.6 1.9-9.7 5.6-13.5 8.4-3.9 2.7-11.3 7.2-16.5 9.8-5.2 2.7-13.6 7.8-18.5 11.2-4.9 3.4-11.3 7.4-14 8.7-2.8 1.4-6.4 3.5-8 4.8-1.7 1.2-6.7 4.1-11.3 6.4-4.5 2.2-11.2 6.1-15 8.6-3.7 2.5-8.5 5.8-10.7 7.4-2.2 1.7-5.8 3.7-8 4.6-2.2 1-6 3.2-8.5 5-2.5 1.8-8.3 5.2-13 7.5-4.7 2.4-10.3 5.6-12.5 7.2-2.2 1.6-6.3 4.4-9 6.2-2.8 1.8-7.5 4.5-10.5 6.1-3 1.5-6.4 3.6-7.5 4.6-1.1 1-5.4 3.7-9.6 6.1-4.2 2.4-10 5.6-12.9 7.3-2.9 1.7-8.1 4.9-11.6 7.2-3.5 2.4-9 5.6-12.2 7.3-3.1 1.6-11.6 7-18.7 11.9-7.2 5-17.3 11.3-22.5 14-5.2 2.7-12 6.5-15 8.5-3 2-7.2 4.8-9.3 6.3-2.1 1.6-6.7 4.4-10.2 6.3-3.5 1.9-8.7 4.8-11.5 6.5-2.9 1.7-14.6 9.3-26.1 17-11.5 7.7-24.2 15.8-28.1 18-4 2.2-9.9 5.8-13.1 8-3.2 2.2-8 5.3-10.5 7-2.6 1.7-8.3 5.5-12.7 8.6-4.4 3.1-10.3 6.8-13 8.2-2.8 1.4-10 5.8-16 9.8-6.1 4.1-13 9.1-15.5 11.2-2.5 2-6.2 4.7-8.2 6-2.1 1.2-10.4 6.7-18.5 12.1-8.2 5.5-17.5 11.7-20.8 13.9-3.3 2.2-7.4 5.2-9 6.7-1.7 1.5-7.1 5.3-12 8.5-5 3.3-11.7 8.4-15 11.5-3.3 3.1-7.6 6.5-9.5 7.5-1.9 1-5.8 3.4-8.5 5.3-2.8 2-6.3 4.7-7.8 6.1-1.6 1.4-5.3 4.2-8.2 6.1-2.9 1.9-7.6 5.3-10.5 7.5-2.8 2.2-7.7 6.2-10.7 9-3.1 2.7-8.2 6.8-11.4 9-3.2 2.2-7.9 5.6-10.5 7.5-2.6 1.9-7.7 6.1-11.3 9.4-3.6 3.2-8 6.5-9.6 7.3-1.7 0.9-5.5 3.9-8.5 6.7-3 2.9-6.9 6.1-8.5 7.1-1.7 1-6.8 5.5-11.5 10-4.7 4.5-10.5 9.4-13 11-2.5 1.5-8.3 6.4-13 11-4.7 4.5-12.3 10.8-17 13.9-4.7 3.1-9.1 5.7-9.8 5.6-0.6 0-2.8-1.5-4.8-3.3-2-1.7-4.2-4.3-4.9-5.7-0.7-1.4-3.2-4.8-5.6-7.6-2.4-2.9-6.6-8.7-9.3-13-2.7-4.4-8.2-11.3-12.1-15.4-4-4.1-8-9.1-9-11-1-1.9-7.1-9-13.6-15.8-6.6-6.7-11.9-12.8-11.9-13.5 0-0.6-8-9.2-17.8-19-9.7-9.9-20.2-19.6-23.2-21.7-3-2.1-11.1-9.5-18-16.5-6.9-6.9-14.3-13.6-16.5-14.7-2.2-1.2-6.7-4.7-10-7.8-3.3-3.1-7.6-6.6-9.5-7.8-1.9-1.1-4.6-3.3-6-4.7-1.4-1.5-4.2-3.6-6.3-4.6-2-1-5.9-3.8-8.7-6.2-2.7-2.3-7.2-6-10.1-8.2-2.8-2.2-7.2-5.3-9.8-6.8-2.5-1.6-6.1-4.3-7.9-6-1.9-1.8-4.9-4.1-6.8-5.2-1.8-1.1-7.3-4.6-12.1-7.9-4.9-3.2-10.2-6.8-11.8-7.9-1.7-1.2-8.6-5.9-15.5-10.5-6.9-4.6-14.8-9.6-17.5-10.9-2.8-1.4-8.7-5.2-13.3-8.4-4.5-3.3-10.8-7.2-14-8.8-3.1-1.6-7.1-4-8.7-5.3-1.7-1.4-5.5-3.8-8.5-5.3-3-1.5-7.3-4-9.5-5.5-2.2-1.5-7.8-4.7-12.5-7-4.7-2.3-10.1-5.5-12-7-1.9-1.5-6-4-9-5.5-3-1.5-7.5-4.2-10-6-2.5-1.8-11.5-6.7-20-11-8.5-4.2-16.9-8.7-18.5-10-1.7-1.2-7.2-4.3-12.3-6.9-5-2.5-11.3-6.1-14-8-2.6-1.9-11.2-6.6-19.2-10.6-8-4-15.9-8.2-17.5-9.5-1.7-1.2-12.2-6.8-23.5-12.5-11.3-5.6-22.1-11.5-24-13-1.9-1.5-7.3-4.7-12-7-4.7-2.3-9.9-5.2-11.5-6.5-1.7-1.2-10.4-5.9-19.5-10.5-9.1-4.5-18.1-9.5-20-11-1.9-1.5-6-4-9-5.5-3-1.5-7.5-4.2-10-6-2.5-1.8-8.3-5.2-13-7.5-4.7-2.3-9.9-5.2-11.5-6.5-1.7-1.2-5.7-3.6-9-5.2-3.3-1.7-7.4-4.2-9-5.5-1.7-1.4-5.5-3.8-8.5-5.3-3-1.5-6.9-3.7-8.5-5-1.7-1.2-5.5-3.5-8.5-5-3-1.5-7.1-4-9-5.5-1.9-1.5-5.5-3.7-8-5-2.5-1.2-18.2-11.4-35-22.5-16.8-11.2-31.2-21.1-32.2-22.1-0.9-1.1-4.9-3.9-8.8-6.4-3.9-2.5-9.4-6.3-12.2-8.5-2.8-2.2-7.8-6-11.2-8.4-3.4-2.4-7.5-5-9.1-5.9-1.7-0.8-5.3-3.7-8-6.3-2.8-2.6-8.6-7.3-13-10.4-4.4-3.2-9-6.1-10.3-6.6-1.2-0.5-6.1-0.9-11-0.9-6.3 0-9.6 0.5-12.1 1.8-2 0.9-4 3-4.7 4.7-1.1 2.7-0.9 3.9 2.2 11.5 2.7 6.6 3.4 9.9 3.4 15 0.1 5.6-0.4 7.1-3 11-1.6 2.5-4.7 5.5-6.7 6.7-2.1 1.3-4.5 2.3-5.3 2.3-0.8 0.1-3.8-1.4-6.5-3.3-2.8-1.9-7.5-4.6-10.5-6.2-3-1.5-6.2-3.3-7-4.1-0.8-0.7-5-3.2-9.2-5.6-4.2-2.4-15.5-9.5-25-15.9-9.5-6.4-18.2-12.7-19.3-13.9-1.1-1.2-4.5-3.5-7.5-5-3-1.5-9.6-5.5-14.5-8.8-5-3.3-9.7-6.7-10.5-7.7-0.8-0.9-4.4-3.6-8-6-3.6-2.3-9.2-5.6-12.5-7.3-3.3-1.7-8.4-5-11.2-7.4-2.9-2.3-7.6-6.1-10.4-8.3-2.9-2.2-9.7-7.1-15.3-10.8-5.6-3.8-11.5-8.1-13.1-9.7-1.7-1.5-4.2-3.4-5.7-4.1-1.5-0.8-5.1-3.3-8-5.7-2.9-2.3-7.6-6-10.3-8.2-2.8-2.2-7.5-5.7-10.5-7.7-3-2-8-5.9-11.2-8.7-3.1-2.8-8-6.9-10.8-9.1-2.9-2.2-7.8-5.7-10.9-7.7-3.1-2.1-8.3-6.4-11.6-9.7-3.3-3.2-8-7.2-10.5-8.9-2.5-1.7-7.7-6.3-11.5-10.2-3.9-3.9-8.7-8-10.8-9.1-2-1-7.8-5.7-12.7-10.4-5-4.7-9.6-8.5-10.3-8.5-0.6 0-13.6-12.4-28.7-27.4-15.1-15.1-29.1-28.2-31-29.1-1.9-1-6.4-4.6-9.9-7.9-3.4-3.4-7.5-8.1-8.9-10.6-1.4-2.5-13.2-15.3-26.3-28.5-13.1-13.2-23.9-24.6-23.9-25.3 0-0.6-4.4-5.8-9.9-11.4-5.4-5.7-10.6-11.9-11.6-13.8-1-1.9-4.1-6-6.9-9-2.9-3-6.1-6.8-7.1-8.5-1.1-1.7-5.2-6.5-9.2-10.7-4-4.3-7.9-9-8.7-10.5-0.7-1.6-3.3-5.6-5.7-8.9-2.4-3.4-6.6-9.2-9.3-13-2.7-3.8-6.1-8.2-7.6-9.9-1.4-1.7-5-6.5-7.8-10.7-2.9-4.3-6.4-10.2-7.8-13-1.4-2.9-3.9-6.6-5.5-8.3-1.5-1.7-4.8-5.9-7.3-9.5-2.5-3.6-6-9.2-7.7-12.5-1.8-3.3-5-8-7.1-10.5-2.2-2.5-6.3-9-9-14.5-2.8-5.5-6.1-11.3-7.3-13-1.3-1.7-4.2-6.8-6.5-11.5-2.3-4.7-5.7-10.5-7.5-13-1.8-2.5-12.9-23.8-24.7-47.5-11.8-23.7-22.3-45.5-23.3-48.5-1-3-3.5-9-5.6-13.2-2.2-4.3-3.9-8.4-3.9-9 0-0.7-1.4-4.2-3.1-7.8-1.7-3.6-3.8-8.8-4.6-11.5-0.8-2.7-2.3-6.6-3.3-8.5-1-1.9-5.7-15.2-19.2-55.5l-6.2-6.4c-3.4-3.5-8.3-7.4-11.1-8.7-2.8-1.3-6.4-2.4-8-2.4-1.8 0-5.7 1.7-9.5 4.1-3.6 2.3-9.3 6.9-12.8 10.3-3.5 3.3-7.2 7.7-8.2 9.6-0.9 1.9-4.2 6.1-7.1 9.3-3.7 4.1-7.6 7-12.4 9.3-5.1 2.5-8.3 3.5-12 3.5-3.7 0-6.9-1-12-3.5-4.3-2.1-8.5-5.1-10.8-7.7-2.2-2.4-5.8-8.2-8.2-12.9-2.3-4.7-5.9-10.9-7.9-13.8-2-2.8-3.6-6.1-3.6-7.2 0-1.1-4.6-11.1-10.1-22.3-5.6-11.1-10.8-22.4-11.6-25.2-0.9-2.7-3.3-8.5-5.4-12.8-2.2-4.2-5.3-12.1-7-17.4-1.7-5.4-4.1-11.6-5.2-13.8-1.1-2.2-5.3-13.9-9.4-26-4-12.1-7.3-22.9-7.3-24 0-1.1-2.4-9.4-5.4-18.5-2.9-9.1-6.1-19.4-7-23-0.9-3.6-2.1-8.5-2.6-11-0.4-2.5-1.3-5.7-1.9-7.3-0.6-1.5-1.1-4.4-1.1-6.5 0-2-0.7-5.7-1.6-8.2-1-2.5-2-7.2-2.4-10.5-0.4-3.3-1.2-8.3-1.9-11-0.7-2.8-2.1-7.8-3.2-11.3-1-3.4-1.9-8.6-1.9-11.4 0-2.9-0.6-7.5-1.5-10.3-0.8-2.7-1.5-6.7-1.5-8.7 0-2.1-0.9-6.2-2-9-1.4-3.6-2-7.7-2-12.8 0-4.2-0.6-9.5-1.5-12-1-3-1.5-8.1-1.5-15 0-7.5-0.4-11.8-1.6-15-1.1-2.8-2-9.7-2.5-18.5-0.4-7.7-1-19-1.3-25-0.2-6-0.9-18-1.5-26.5-0.6-8.5-1.6-28.3-2.1-44-0.5-15.7-1-44-1-63 0-19 0.4-37 0.9-40 0.6-3 1.5-16.3 2.2-29.5 0.6-13.2 1.2-26.2 1.3-28.9 0.1-2.7-0.4-5.6-1-6.5-0.8-1.2-0.7-2.7 0.7-6.4 1.4-3.5 1.9-7.4 1.9-15.4 0.1-8.1 0.6-12.2 2-16.3 1.5-4.3 1.9-8.2 1.9-18 0.1-8.6 0.5-13.9 1.6-17 1-2.8 1.5-7.9 1.5-13.5 0-6.5 0.5-10.7 2-15 1.1-3.3 2-7.6 2-9.5 0-1.9 0.7-5.5 1.5-8 0.8-2.5 1.5-7 1.5-10 0-3 0.9-8.2 2-11.5 1.1-3.3 2-8.5 2-11.5 0-3 0.7-7.5 1.5-10 0.8-2.5 1.5-6.1 1.6-8 0-1.9 0.8-6 1.9-9 1.1-3 1.9-7.3 1.9-9.5 0.1-2.2 0.8-6 1.6-8.5 0.8-2.5 1.5-6.1 1.5-8 0-1.9 0.9-6.2 2-9.5 1.1-3.3 2-6.9 2-8 0.1-1.1 0.9-4.5 2-7.5 1.1-3 1.9-6.8 2-8.5 0-1.7 0.7-6.2 1.6-10 0.9-3.8 3.2-11.7 5-17.5 1.8-5.8 3.5-11.8 3.8-13.5 0.2-1.7 1.2-5.9 2.2-9.5 0.9-3.6 3.2-11.2 5-17 1.9-5.8 3.4-11.4 3.4-12.5 0-1.1 1.8-7.4 4-14 2.2-6.6 7.9-23.7 12.7-38 4.7-14.3 9.6-28 10.8-30.5 1.2-2.5 3.7-8.9 5.4-14.2 1.7-5.4 4-11.5 5-13.5 1-2.1 2.5-6 3.4-8.8 0.8-2.7 2.6-7.2 3.9-10 1.4-2.7 3.1-6.8 3.8-9 0.7-2.2 3.6-8.7 6.5-14.5 2.9-5.8 6-13 7-16 1-3 9-19.9 17.8-37.5 8.7-17.6 17.4-34 19.2-36.5 1.8-2.5 5.2-8.3 7.5-13 2.3-4.7 5.2-9.9 6.5-11.5 1.2-1.6 3.2-5 4.5-7.5 1.2-2.5 6.6-11 11.9-18.8 5.3-7.9 10.5-15.8 11.5-17.5 1.1-1.8 4.5-6.8 7.6-11.2 3.1-4.4 6.4-9.5 7.3-11.2 0.9-1.8 3.4-5.2 5.6-7.5 2.1-2.4 4.5-5.7 5.3-7.3 0.9-1.6 4-5.7 7-9 3-3.3 6.9-8.1 8.6-10.8 1.8-2.6 3.2-5.6 3.2-6.7 0-1.1-5-12-11.1-24.3-6.1-12.2-11.8-24.4-12.6-27.2-0.9-2.7-3.1-8.1-5.1-12-1.9-3.9-8.6-22.2-14.9-40.8-6.5-19.6-11.3-35.3-11.3-37.5 0-2-0.7-5.7-1.5-8.2-0.8-2.5-1.5-6.1-1.5-8 0-1.9-0.9-6.2-2-9.5-1.1-3.3-2-7.6-2-9.5 0-1.9-0.7-5.5-1.5-8-1-3-1.5-8.2-1.6-15.5 0-8.3-0.4-12.4-1.9-16.5-1.8-5.1-1.9-8.5-2-43.5 0-35.2 0.2-38.5 2-44.3 1.5-4.5 2-8.9 2-16.5 0-6.6 0.5-11.8 1.5-14.7 0.8-2.5 1.5-6.3 1.5-8.5 0-2.2 0.7-5.8 1.6-8 0.9-2.2 2-7.1 2.5-11 0.4-3.9 1.3-9 2-11.5 0.6-2.5 3.6-12.1 6.6-21.5 3.1-9.4 6.1-18.1 6.9-19.5 0.7-1.4 2.6-6.1 4.2-10.5 1.6-4.4 4.2-10.9 5.6-14.5 1.5-3.6 5.2-11.9 8.4-18.4 3.1-6.5 6.9-13.6 8.4-15.7 1.6-2.2 4.9-8.1 7.4-13.2 2.6-5 6.1-11.2 7.9-13.7 1.8-2.5 4.3-6.5 5.5-9 1.3-2.5 4.8-8.1 7.8-12.5 3-4.4 6.5-9.4 7.9-11 1.3-1.6 4.4-5.5 6.8-8.5 2.5-3 5.4-7.2 6.5-9.3 1.1-2 6.5-8.4 12-14.2 5.5-5.8 10-11.1 10-11.8 0.1-0.6 9.4-10.6 20.8-22 11.4-11.5 22.7-22.3 25.2-24 2.5-1.6 7-5.4 10-8.2 3-2.8 7.1-6 9-7 1.9-1 6-4.1 9-6.9 3-2.9 8.9-7.4 13-10 4.1-2.7 8.6-5.6 10-6.6 1.4-0.9 8.6-5.7 16-10.7 7.4-4.9 16.6-11 20.5-13.5 3.8-2.5 9.9-6 13.5-7.8 3.6-1.8 7.8-4.3 9.5-5.5 1.6-1.3 11.5-6.5 22-11.8 10.4-5.2 20.8-10 23-10.7 2.2-0.7 7.1-2.9 11-4.8 3.8-1.9 13.1-5.6 20.5-8.2 7.4-2.6 16.9-6 21-7.6 4.1-1.7 10.4-3.8 14-4.7 3.6-1 11.7-3.4 18-5.3 6.3-1.8 14.2-4.1 17.5-5 3.3-0.8 8-1.9 10.5-2.3 2.5-0.5 6.3-1.6 8.5-2.5 2.2-0.9 5.8-1.6 8-1.6 2.2 0 6-0.7 8.5-1.5 2.5-0.8 7.1-1.5 10.2-1.5 3.4 0 8-0.8 11-2 3-1.1 7.7-2 10.8-2 3 0 7.7-0.6 10.5-1.5 3.1-0.9 9.1-1.5 15.7-1.5 8.4 0 12-0.5 16-2 4.8-1.8 7.7-2 32.3-2 24.5 0 27.6 0.2 33 2 5.2 1.8 8.5 2 25.5 2 15 0 20.5 0.3 24 1.5 2.5 0.9 7.8 1.5 12 1.5 5.1 0 9.2 0.6 12.7 2 2.9 1.1 6.8 2 8.5 2 1.8 0 6.4 0.7 10.3 1.6 3.8 0.9 9.7 2.5 13 3.5 3.3 1.1 7.6 1.9 9.5 1.9 1.9 0 11.4 2.6 21 5.8 9.6 3.3 18.8 6.6 20.5 7.5 1.6 0.8 6.1 2.7 10 4.2 3.8 1.5 10.4 3.9 14.5 5.5 4.1 1.5 15.3 6.6 24.7 11.4 9.5 4.7 19.9 10.3 23 12.5 3.2 2.1 9.2 5.6 13.3 7.6 4.1 2.1 9.5 5.1 12 6.8 2.5 1.7 5.6 3.8 7 4.7 1.4 0.9 5.6 3.8 9.5 6.5 3.8 2.6 8.1 5.3 9.5 6 1.4 0.7 5.8 4.2 9.7 7.9 4 3.6 7.7 6.6 8.3 6.6 0.5 0 4.7 3.5 9.2 7.8 4.6 4.3 10.3 9 12.8 10.4 2.5 1.5 10.4 8.6 17.6 16 7.2 7.3 14.1 15.1 15.2 17.3 1.1 2.2 4.6 6.5 7.7 9.5 3.1 3 7.1 7.5 8.9 10 2.5 3.3 4.5 4.8 7.7 5.9 3 0.9 7.8 1.2 15.4 0.9 7.1-0.3 12.4-1.1 15-2.2 3.6-1.5 12.1-1.6 95.5-1.6 84.6 0 91.8 0.1 95.5 1.7 3.3 1.4 8.4 1.8 28.5 2.3 15.7 0.4 25.5 1 27.2 1.8 1.7 0.7 7.8 1.2 15.5 1.2 10 0 14.2 0.5 19 2 4.9 1.6 9 2 18.5 2 8.5 0 13.7 0.4 16.8 1.5 2.5 0.8 7 1.5 10 1.6 3 0 8 0.8 11 1.9 3.5 1.2 8.2 1.9 13 1.9 4.1 0.1 9.5 0.8 12 1.6 2.5 0.8 6.1 1.5 8 1.5 1.9 0 5.5 0.7 8 1.6 2.5 0.9 8.1 2 12.5 2.4 4.4 0.4 10.2 1.2 13 1.9 2.7 0.7 7.7 2.1 11 3.2 3.3 1.1 7.6 1.9 9.5 1.9 1.9 0 5.3 0.6 7.5 1.4 2.2 0.7 7.1 1.9 11 2.5 3.8 0.6 9 1.6 11.5 2.2 2.5 0.6 9.4 2.7 15.5 4.5 6 1.9 11.7 3.4 12.5 3.4 0.8 0 16.5 4.9 34.7 11 18.3 6 35.4 12.1 38 13.4 2.7 1.3 6.8 2.9 9.3 3.6 2.5 0.7 7.9 2.9 12 5 4.1 2 8.6 4.1 10 4.5 1.4 0.3 7.4 3 13.5 5.8 11 5 11 5 16 3.8 2.7-0.7 8.6-2.8 13-4.6 4.4-1.8 10.9-4.5 14.5-6 3.6-1.5 19.7-7.1 35.7-12.6 16.1-5.4 30.1-9.9 31-9.9 1 0 8.8-2.2 17.3-5 8.5-2.8 16.2-5 17-5 0.8 0 6.2-1.6 12-3.5 5.8-2 12-3.5 13.7-3.5 1.8 0 8.1-1.5 14-3.4 6-1.9 13-3.7 15.8-4 2.7-0.3 7-1.3 9.5-2.1 2.5-0.8 6.2-1.5 8.2-1.5 2.1 0 6.2-0.9 9-2 2.9-1.1 7.1-2 9.3-2 2.2 0 6-0.7 8.5-1.5 2.5-0.8 7.1-1.5 10.2-1.5 3.4 0 8-0.8 11-2 2.9-1.1 7.1-2 9.3-2 2.2 0 6-0.7 8.5-1.5 2.5-0.8 7.6-1.5 11.5-1.5 4.5 0 9.2-0.7 13-2 3.3-1.1 8.2-2 11-2 2.7 0 7.2-0.6 10-1.5 3.2-1 9.4-1.5 17.5-1.5 9.7-0.1 13.7-0.5 18-2 4.2-1.5 8.3-1.9 16.7-2 6.5 0 12.5-0.5 14-1.2 1.8-0.7 11.4-1.4 25.3-1.8 17.5-0.5 23.5-1 27-2.4 4.1-1.5 12.9-1.6 101-1.6 86.9 0 96.9 0.1 100.5 1.6 2.2 0.9 7.1 1.9 11 2.2 4.1 0.3 9 0 12-0.7 4-1 6.4-2.7 12.2-8.2 4-3.8 8.8-7.6 10.5-8.5 1.8-0.9 6.4-4.7 10.3-8.4 3.8-3.7 8.6-7.8 10.6-9.1 2-1.3 6.7-4.7 10.4-7.4 3.8-2.8 8.4-6.4 10.4-8.1 2-1.7 5.6-4.4 8.1-5.9 2.5-1.5 5.8-4 7.5-5.5 1.6-1.5 6.8-5.3 11.5-8.4 4.7-3.1 10.7-7.1 13.3-8.9 2.7-1.7 6.7-4.9 9-6.9 2.3-2 7.6-5.6 11.8-8 4.2-2.4 10-5.7 12.9-7.3 2.9-1.7 8.2-5 11.9-7.3 3.6-2.4 8.8-5.5 11.6-6.9 2.7-1.4 6.3-3.5 8-4.8 1.6-1.2 15.8-8.7 31.5-16.7 15.7-7.9 31.6-15.5 35.5-17 3.8-1.4 9.2-3.5 12-4.6 2.7-1.2 7.9-3.3 11.5-4.8 3.6-1.4 16.8-6.1 29.5-10.5 12.6-4.3 23.9-7.8 25-7.9 1.1 0 6.7-1.5 12.5-3.4 5.8-1.8 13.6-4.1 17.5-5 3.8-0.9 9-1.6 11.5-1.6 2.5 0 7.2-0.9 10.5-2 3.3-1.1 7.3-2 9-2 1.6 0 5.1-0.7 7.7-1.5 2.7-0.8 4.8-2.1 4.8-2.8-0.1-0.8 0.5-0.7 1.7 0.4 1 0.9 2.8 1.9 4 2.3 1.3 0.3 2.6 0.1 3-0.5 0.4-0.6 1.3-0.8 2-0.5 0.7 0.3 7.7 0 15.5-0.8 7.8-0.7 14.4-1.6 14.7-2 0.2-0.3 14.6-0.6 32-0.6z"/><path class="b" d="m756 59.5c13.5 0.3 31 1.2 39 2 8 0.9 18.8 2.3 24 3.1 5.2 0.9 13.8 2.4 19 3.5 5.2 1.1 15.4 3.5 22.5 5.4 7.1 1.8 18.9 5.4 26 7.8 7.1 2.4 17.3 6.2 22.5 8.3 5.2 2.1 16.5 7.3 25 11.5 8.5 4.2 21.4 11.2 28.5 15.6 7.1 4.3 18 11.4 24 15.7 6 4.4 15.7 11.8 21.5 16.5 5.8 4.7 17 14.9 24.9 22.6 7.9 7.7 18.6 18.9 23.8 25 5.3 6.1 13.9 16.8 19.3 24 5.4 7.2 13.3 18.4 17.6 25 4.2 6.6 7.8 12.1 7.8 12.3 0.1 0.1 8.4-1.4 18.6-3.3 10.2-2 27-4.9 37.5-6.5 10.5-1.6 27.5-3.8 38-4.9 10.5-1.2 25.1-2.6 32.5-3.2 7.4-0.5 32-1.3 54.5-1.6 25.6-0.4 49.6-0.1 64 0.6 12.7 0.6 32.9 2.1 45 3.2 12.1 1.1 31 3.1 42 4.5 11 1.3 31 4.3 44.5 6.5 13.5 2.2 35.3 6.2 48.5 8.9 13.2 2.8 36.6 8.1 52 11.9 15.4 3.8 38.1 9.9 50.5 13.5 12.4 3.6 32.4 9.7 44.5 13.7 12.1 3.9 30.1 10 40 13.6 9.9 3.6 28.6 10.7 41.5 15.8 12.9 5.1 29.1 11.7 48.5 20.1l31-10.8c17-5.9 46.3-15.9 65-22.2 18.7-6.3 43.5-14.5 55-18.1 11.5-3.7 30.9-9.6 43-13.1 12.1-3.6 31.2-8.9 42.5-11.9 11.3-3 30.2-7.7 42-10.4 11.8-2.7 29.8-6.6 40-8.6 10.2-2 26.6-4.9 36.5-6.5 9.9-1.6 25.2-3.8 34-4.9 8.8-1.1 23.4-2.7 32.5-3.6 9.1-0.8 27.3-2 40.5-2.6 13.8-0.7 34.2-0.9 48-0.5 13.2 0.4 32.3 1.3 42.5 2.2 10.2 0.8 23.7 2.1 30 3 6.3 0.8 17.1 2.4 24 3.5 6.9 1.1 17 2.9 22.5 4 5.5 1.1 15.8 3.3 36 8l11.1-11.8c6.1-6.5 17.1-17.3 24.5-24 7.4-6.6 17.7-15.7 22.9-20.1 5.2-4.3 16-12.8 24-18.8 8-6 20.3-14.8 27.5-19.6 7.2-4.7 20.7-13.2 30-18.8 9.3-5.5 26.9-15 39-21 12.1-6 29.2-13.9 38-17.5 8.8-3.7 23-9.1 31.5-12.2 8.5-3 23.8-7.9 34-10.8 10.2-2.9 25.9-7 35-9 9.1-2 24.4-5 34-6.6 9.6-1.6 26.5-3.9 37.5-5.1 16.4-1.8 26.3-2.2 55-2.2 22.2-0.1 39.8 0.4 48 1.2 7.2 0.8 19.5 2.2 27.5 3.3 8 1.1 21.3 3.4 29.5 5 8.3 1.7 21.1 4.6 28.5 6.5 7.4 2 21.4 6.2 31 9.4 9.6 3.2 23.6 8.4 31 11.5 7.4 3.1 20.5 9.1 29 13.4 8.5 4.2 20 10.3 25.5 13.6 5.5 3.2 14.9 9.1 21 13 6.1 4 15.5 10.6 21 14.7 5.5 4.1 15.6 12.1 22.5 17.9 6.8 5.7 18.7 16.7 26.5 24.4 7.7 7.7 18.5 19.6 24 26.5 5.6 6.9 14.4 19 19.6 27 5.3 8 11.7 18.3 14.4 23 2.7 4.7 8.6 16.1 13.2 25.5 4.6 9.4 11.4 24.9 15.2 34.5 3.8 9.6 8.9 23.8 11.4 31.5 2.5 7.7 6.4 21 8.6 29.5 2.2 8.5 5.4 21.8 7 29.5 1.6 7.7 4.1 21.4 5.5 30.5 1.4 9.1 3.2 23.3 4.1 31.5 0.9 8.3 1.9 24.9 2.4 37 0.5 12.5 0.5 31.9 0 45-0.5 12.6-1.8 31.1-2.9 41-1.2 9.9-3.2 24.5-4.6 32.5-1.3 8-4.7 23.5-7.4 34.5-2.7 11-7.1 26.8-9.8 35-2.7 8.3-7.3 21.1-10.3 28.5-2.9 7.4-10.1 23.2-26.8 56.5l9.8 14.5c5.4 8 14.9 22.6 21.1 32.5 6.2 9.9 17.3 28.5 24.6 41.3 7.4 12.7 19 33.9 25.9 47 6.8 13 17.6 34.5 23.8 47.7 6.3 13.2 15.6 33.5 20.7 45 5.1 11.5 13.4 31.3 18.5 44 5.1 12.7 12.2 30.9 15.8 40.5 3.6 9.6 10 27.4 14.2 39.5 4.2 12.1 11.4 34.2 16 49 4.6 14.8 10.8 36 13.8 47 3.1 11 8 29.9 11.1 42 3 12.1 7.5 31.2 10 42.5 2.4 11.3 6.1 28.6 8 38.5 1.9 9.9 5.1 27.5 7 39 2 11.5 4.7 28.9 6 38.5 1.4 9.6 3.4 25.4 4.5 35 1.1 9.6 2.7 24.7 3.6 33.5 0.8 8.8 2.2 26.1 3.1 38.5 0.8 12.4 1.8 42.3 2.1 66.5 0.3 27.4 0.1 53.4-0.6 69-0.6 13.8-1.8 32.9-2.7 42.5-0.8 9.6-3 28.5-4.9 42-1.8 13.5-4.3 30.1-5.5 37-1.2 6.9-3.9 21.5-6.1 32.5-2.2 11-6.6 30.8-9.9 44-3.2 13.2-8.1 32.1-11 42-2.8 9.9-8.1 27-11.7 38-3.6 11-8.8 26.1-11.5 33.5-2.7 7.4-8.7 22.5-13.3 33.5-4.5 11-10.1 23.9-16.5 37.5l-5.3 1c-2.8 0.6-8.4 1.4-12.2 1.7-4.2 0.4-9.6 0.1-13.5-0.7-3.6-0.6-9.1-2.5-12.3-4.1q-5.7-2.9-19-15.6c-8.4-8.1-15.4-13.8-18.8-15.6-3-1.5-6.7-2.8-8.3-3-2.6-0.2-3.1 0.3-5.2 5.3-1.2 3-7.7 18.1-14.2 33.5-6.6 15.4-16.3 37.7-21.7 49.5-5.3 11.8-18.8 39.9-30 62.5-11.2 22.6-25.2 49.8-31.1 60.5-5.8 10.7-14.5 26.3-19.2 34.5-4.7 8.3-13.9 24-20.5 35-6.6 11-18.6 30.3-26.8 43-8.1 12.7-21.6 32.9-29.9 45-8.4 12.1-22.5 31.7-31.3 43.5-8.8 11.8-21.9 28.9-29.2 38-7.2 9.1-18.4 22.8-24.9 30.5-6.5 7.7-18.2 21.2-26 30-7.9 8.8-23 25.2-33.8 36.5-10.7 11.3-27.3 27.9-36.9 37-9.6 9.1-22.6 21.3-28.9 27.1-6.3 5.7-17.8 15.9-25.5 22.5-7.7 6.6-22.1 18.6-32 26.5-9.9 8-25.2 19.9-34 26.5-8.8 6.6-22.1 16.3-29.5 21.6-7.4 5.2-20.9 14.4-30 20.5-9.1 6-23.9 15.6-33 21.3-9.1 5.7-26.8 16.3-39.5 23.5-12.7 7.3-25.5 14.4-34 18.7l-1.8-2.4c-1-1.2-4-6.8-6.7-12.3-2.8-5.5-6.2-14.5-7.7-20-2.5-9.4-2.7-11.3-2.7-32.3-0.1-12.2-0.4-22.2-0.9-22.2-0.4 0-9.4 8.3-20 18.4-10.5 10.1-25 23.6-32.2 29.9-7.2 6.3-19.3 16.7-27 23.2-7.7 6.4-22.6 18.3-33 26.4-10.4 8.1-26.4 20.1-35.5 26.7-9.1 6.6-23.9 17.2-33 23.4-9.1 6.3-25.5 17.3-36.5 24.5-11 7.2-29 18.8-40 25.7-11 6.9-31.9 19.7-46.5 28.5-14.6 8.8-38.9 23.2-54 32-15.1 8.8-51.6 29.9-81 46.8-29.4 16.9-65.4 37.8-80 46.3-14.6 8.5-37.3 22.1-50.5 30-13.2 8-35 21.5-48.5 30-13.5 8.5-35.3 22.7-48.5 31.6-13.2 8.8-32.8 22.3-43.5 30-10.7 7.6-26 18.9-34 25-8 6-21 16.2-29 22.6-8 6.4-20.8 17.1-28.5 23.7-7.7 6.6-24.1 21.2-36.5 32.5-12.4 11.3-28.2 26-35.3 32.6-7 6.7-13.3 12.2-14 12.2-0.6-0.1-5.5-4.2-10.7-9.3-5.3-5.1-15.4-14.3-22.5-20.6-7.2-6.3-20.2-17.3-29-24.6-8.8-7.2-23.4-18.9-32.5-25.9-9.1-6.9-26.2-19.6-38-28-11.8-8.5-33-23-47-32.3-14-9.4-36.3-23.7-49.5-32-13.2-8.2-36.8-22.6-52.5-32-15.7-9.3-40.2-23.8-54.5-32-14.3-8.3-50.8-29.1-81-46.3-30.3-17.2-70.1-40-88.5-50.8-18.4-10.7-44.8-26.4-58.5-34.7-13.8-8.4-33.3-20.5-43.5-27-10.2-6.5-30.4-19.8-45-29.6-14.6-9.7-35.4-24.2-46.2-32.1-10.8-7.9-27-20-36-27-9-6.9-22.4-17.7-29.8-23.8-7.4-6.2-20.9-17.8-30-25.8-9-8.1-23.8-21.9-32.9-30.7-9-8.8-22.8-23-30.6-31.5-7.8-8.5-16.9-18.6-20.1-22.3-5.7-6.6-6-6.9-9.4-6.2-1.9 0.3-5.8 1.3-8.5 2.2-3.4 1.1-6.6 3.3-10.1 6.7-2.7 2.8-6.3 7.8-7.9 11.1-1.5 3.3-4 11.2-5.5 17.5-1.5 6.3-4.2 17.3-5.9 24.5-1.7 7.2-4.4 15.7-6 19-1.6 3.3-4.1 7.1-8 11l-20.8-14.4c-11.4-8-27.8-19.4-36.3-25.5-8.5-6-28.1-20.1-43.5-31.3-15.4-11.1-37.2-27.3-48.5-35.9-11.3-8.7-29.3-22.7-40-31.2-10.7-8.6-28.7-23.3-40-32.7-11.3-9.5-27.5-23.4-36-31-8.5-7.5-24.3-22-35-32-10.7-10.1-28.1-27-38.5-37.6-10.5-10.7-24.2-25-30.5-31.9-6.3-6.9-17.2-19.1-24.1-27-6.9-8-17.9-21-24.4-29-6.5-8-19.2-24.4-28.3-36.5-9.1-12.1-23.7-32.8-32.5-46-8.7-13.2-20.8-32.1-26.7-42-5.9-9.9-14.6-25.1-19.4-33.7-4.7-8.7-12.7-24-17.7-34-5-10.1-12.2-25-15.9-33.3-3.8-8.2-9.7-22-13.3-30.5-3.5-8.5-9.4-23.4-13-33-3.6-9.6-9.3-25.8-12.7-36-3.4-10.2-9-28.4-12.5-40.5-3.4-12.1-8.4-30.8-11-41.5-2.6-10.7-5.1-21.2-5.6-23.2-0.9-3.6-1.1-3.8-4.9-3.8-2.2 0-7 0.7-10.8 1.5-3.7 0.7-9.4 2.3-12.7 3.5-3.3 1.1-8.5 3.5-11.5 5.2-3 1.6-8.9 5.6-13 8.6-4.1 3.1-12.2 10.2-18 15.7-5.8 5.5-13.2 12.4-22.5 20.7l-5.6-8.9c-3.1-4.8-8.9-14.4-12.9-21.3-4-6.9-11-19.7-15.5-28.5-4.6-8.8-11.5-23-15.3-31.5-3.9-8.5-9.7-22.2-13-30.5-3.3-8.2-8.2-21.3-11-29-2.8-7.7-7.5-22.3-10.6-32.5-3.1-10.2-8.1-28.2-11-40-3-11.8-7-29.4-9-39-2-9.6-4.9-25.6-6.5-35.5-1.7-9.9-4.2-27-5.5-38-1.4-11-3.2-27.4-4.1-36.5-0.8-9.1-2-24.6-2.7-34.5-0.8-11.1-1.3-38.2-1.3-71 0-32.1 0.5-60.3 1.3-71.5 0.7-10.2 1.9-26.6 2.8-36.5 0.8-9.9 2.6-27.9 4-40 1.4-12.1 3.8-31.2 5.5-42.5 1.6-11.3 4.1-27 5.5-35 1.3-8 4.5-24.8 7-37.5 2.5-12.7 7-33.3 9.9-46 3-12.7 7.5-30.9 10-40.5 2.5-9.6 7.1-26 10.1-36.5 3.1-10.5 10.2-33 15.9-50 5.6-17 14.4-41.8 19.5-55 5.1-13.2 13.2-33.2 18-44.5 4.9-11.3 12.7-28.8 17.5-39 4.7-10.2 12.8-26.6 17.9-36.5 5.1-9.9 12.6-23.9 16.6-31 4-7.1 11.5-20.2 16.8-29 5.3-8.8 15.5-24.8 22.7-35.5 7.2-10.7 17.3-25.1 22.4-32 5.2-6.9 13.8-17.9 19.2-24.5 5.3-6.6 14-16.8 19.3-22.7 6.9-7.7 9.4-11.3 9-12.5-0.3-1-2.3-4.3-4.4-7.3-2-3-7.7-12.2-12.5-20.5-4.8-8.2-13-23.3-18.1-33.5-5-10.2-11.1-23-13.4-28.5-2.4-5.5-6-14.7-8.2-20.5-2.1-5.8-5.9-17.2-8.3-25.5-2.4-8.2-6-21.5-7.9-29.5-2-8-4.7-21-6.1-29-1.4-8-3.3-21-4.2-29-1.3-11-1.7-22.8-1.7-49 0-27.6 0.3-37.1 1.8-47.5 1-7.1 2.7-17.7 3.7-23.5 1.1-5.8 3.6-16.8 5.5-24.5 2-7.7 5.4-19.6 7.6-26.5 2.2-6.9 6.5-18.8 9.5-26.5 3.1-7.7 8.6-20.3 12.2-28 3.7-7.7 10-19.9 14-27 4-7.1 11.9-20 17.5-28.5 5.6-8.5 14-20.4 18.6-26.5 4.6-6 13.1-16.6 18.9-23.5 5.8-6.9 16.7-18.7 24.1-26.4 7.4-7.6 18.4-18.2 24.5-23.6 6.1-5.4 14.6-12.8 19-16.5 4.4-3.7 13.9-11.1 21-16.4 7.1-5.4 20.2-14.6 29-20.4 8.8-5.7 23.2-14.6 32-19.6 8.8-5.1 23.2-12.7 32-17 8.8-4.4 23.2-10.9 32-14.6 8.8-3.6 22.7-9 31-12 8.2-2.9 22.2-7.3 31-9.8 8.8-2.5 21.2-5.8 27.5-7.2 6.3-1.5 17.1-3.7 24-5 6.9-1.3 19.9-3.3 29-4.4 9.1-1.2 22.6-2.5 30-3 7.4-0.5 24.5-0.8 38-0.6z"/><path fill-rule="evenodd" class="a" d="m709.5 223.2c2.8-0.1 12.1 0.3 20.8 0.8 8.6 0.6 20.3 1.7 25.9 2.5 5.7 0.9 14.8 2.5 20.3 3.7 5.5 1.1 15.2 3.6 21.5 5.4 6.3 1.9 16.5 5.2 22.5 7.5 6 2.2 19.1 8 29 12.9 9.9 4.8 23.6 12.3 30.5 16.7 6.9 4.3 17.9 11.8 24.5 16.7 6.6 4.9 16 12.3 21 16.4 5 4.2 17.8 16.4 28.6 27.1 10.7 10.8 24.4 25.5 30.3 32.6 5.9 7.1 15.4 19.1 21 26.5 5.5 7.4 15.1 20.9 32.1 46.2l3.5-0.6c1.9-0.3 11.8-1.4 22-2.5 10.2-1.2 26.4-2.7 36-3.6 9.6-0.8 28.3-2.1 41.5-2.9 13.2-0.9 39.1-2.1 57.5-2.7 20.7-0.7 52.5-0.9 83-0.6 27.2 0.4 57.8 1.1 68 1.7 10.2 0.5 28.2 1.7 40 2.5 11.8 0.9 30.7 2.4 42 3.5 11.3 1.1 29.5 3.2 40.5 4.6 11 1.4 26.1 3.4 33.5 4.5 7.4 1 22.5 3.5 33.5 5.4 11 1.9 30.1 5.5 42.5 8 12.4 2.6 34.7 7.7 49.5 11.5 14.8 3.7 36.7 9.7 48.5 13.3 11.8 3.6 29.4 9.3 39 12.7 9.6 3.4 26 9.6 36.5 13.7 10.5 4.2 25.7 10.7 34 14.6 8.2 3.8 16.1 7.4 17.5 7.9 2.2 0.9 3.7 0.2 13.5-6.7 6-4.2 17.1-11.3 24.5-15.8 7.4-4.4 20.2-11.5 28.5-15.8 8.2-4.3 22.4-11.1 31.5-15.2 9.1-4.1 24.2-10.3 33.5-13.9 9.3-3.6 25.5-9.3 36-12.8 10.5-3.4 27.3-8.4 37.5-11.1 10.2-2.7 25.7-6.5 34.5-8.4 8.8-1.9 22.3-4.6 30-6 7.7-1.4 21.7-3.7 31-5 9.3-1.4 26.2-3.4 37.5-4.4 11.3-1.1 28.6-2.5 38.5-3.1 9.9-0.5 32.8-1 51-1 18.2 0 41.1 0.5 51 1 9.9 0.6 25.9 1.7 35.5 2.5 9.6 0.9 26.7 2.7 38 4.1 11.3 1.3 29.9 4 41.5 5.9 11.6 1.8 29.3 5 39.5 7 10.2 2 28.2 5.9 40 8.6 11.8 2.7 31.5 7.6 43.8 10.9 12.2 3.3 22.6 6 23.2 6 0.6 0 1.7-1.9 2.7-4.2 0.9-2.4 4.8-10.6 8.8-18.3 3.9-7.7 10.2-18.9 13.9-25 3.8-6 10.2-15.7 14.4-21.5 4.1-5.8 10.9-14.8 15-20 4.2-5.2 16.2-18.1 26.6-28.5 11.4-11.4 24.1-22.9 31.4-28.5 6.8-5.2 16.9-12.6 22.5-16.3 5.6-3.7 14.9-9.4 20.7-12.7 5.8-3.2 16.1-8.6 23-11.8 6.9-3.3 18.1-8.1 25-10.6 6.9-2.6 17.7-6.2 24-8.1 6.3-1.8 16.7-4.5 23-5.9 6.3-1.4 17.3-3.4 24.5-4.5 7.2-1.1 18.2-2.4 24.5-3 6.3-0.6 17.8-1.3 25.5-1.6 7.7-0.4 23-0.1 34 0.5 11 0.6 27 2 35.5 3 8.5 1.1 20.9 2.9 27.5 4 6.6 1.2 17.2 3.2 23.5 4.6 6.3 1.4 15.1 3.4 19.5 4.5 4.4 1.1 14.5 3.8 37 10.1l5.5 5.7c3 3.2 7 8.7 8.8 12.2 2.3 4.6 3.2 7.7 3.2 11.2 0 3.7-0.6 5.4-2.8 8-1.6 1.7-5.1 4.2-7.8 5.4-2.7 1.2-7.8 2.7-11.4 3.3-4.3 0.8-12.7 1-24.5 0.6-9.9-0.4-30.2-0.9-45-1.2-20.8-0.4-30.5-0.2-42 1-8.3 0.9-20.4 2.5-27 3.6-6.6 1.1-18.3 3.6-26 5.5-7.7 1.9-18.7 5-24.5 6.9-5.8 1.8-14.8 5.1-20 7.1-5.2 2-15.8 6.8-23.5 10.5-7.7 3.7-18.9 9.8-25 13.5-6.1 3.7-15.7 10.1-21.5 14.3-5.8 4.2-15 11.6-20.5 16.3-5.5 4.8-14.6 13.4-20.3 19.3-5.6 5.8-14 15.4-18.7 21.4-4.8 5.9-11.2 14.5-14.4 19.2-3.2 4.7-8.5 12.8-11.6 18-3.2 5.2-9 15.8-13 23.5-3.9 7.7-9.3 19.2-11.9 25.5-2.7 6.3-6.8 17.4-9.1 24.5-2.3 7.1-6.8 18.9-9.9 26-3.1 7.1-8.4 18-11.7 24-3.4 6-8.8 15.3-12.1 20.5-3.3 5.2-9.7 14.5-14.3 20.5-4.6 6-12.8 16-18.2 22-5.4 6-14.8 15.4-20.8 20.8-6.1 5.4-15.5 13.3-21 17.5-5.5 4.2-15.2 11-21.5 15-6.3 4-18 10.6-26 14.7-8 4-19.2 9.2-25 11.5-5.8 2.3-14.1 5.5-18.5 7.1-4.4 1.6-12.4 5.4-17.8 8.4-5.3 3-13.6 7.9-18.5 10.9-4.8 3-15 10.1-22.7 15.8-7.7 5.8-19.6 15.4-26.5 21.5-6.9 6-16.7 15.4-21.9 20.9-5.2 5.4-12.6 13.7-16.6 18.4-3.9 4.7-11.4 14.1-16.4 21-5.1 6.9-12.8 18.1-17.1 25-4.2 6.9-10.7 18.1-14.3 25-3.6 6.9-9 18.1-12 25-3 6.9-7.6 18.4-10.2 25.5-2.6 7.1-6.3 18.4-8.2 25-1.9 6.6-4.8 17.9-6.4 25-1.6 7.1-4.1 19.8-5.4 28-1.3 8.3-2.9 19.7-3.5 25.5-0.6 5.8-0.9 10.7-0.6 11 0.4 0.3 9.5-4.1 20.4-9.7 10.8-5.6 24.6-12.2 30.7-14.8 6.1-2.6 18.2-7.4 27-10.7 8.8-3.3 23.2-8.2 32-10.8 8.8-2.7 21.4-6.2 28-7.8 6.6-1.7 17.8-4.2 25-5.7 7.2-1.5 20.2-3.7 29-5 8.8-1.4 24.6-3.2 35-4.1 14.9-1.3 26-1.5 51.5-1.1 23.8 0.4 36.9 1.1 49 2.6 9.1 1.1 21.9 3 28.5 4.1 6.6 1.2 18.1 3.5 25.5 5.2 7.4 1.7 20.5 5 29 7.5 8.5 2.4 21.8 6.7 29.5 9.5 7.7 2.8 20.3 7.8 28 11 7.7 3.3 23.4 10.8 35 16.6 11.5 5.9 25.4 13.7 31 17.3 5.5 3.6 16.3 11.3 24 17.1 7.7 5.8 18.3 14.3 23.4 18.9 5.2 4.6 11.9 11.3 14.8 14.9 3 3.6 6.1 8.5 7 11 1.2 3.2 1.4 5.2 0.7 6.9-0.5 1.4-2.5 3.4-4.4 4.5-2.5 1.4-6 2.1-12 2.4-4.7 0.3-13-0.1-18.5-0.7-5.5-0.7-16.8-2.6-25-4.2-8.2-1.6-21.1-4.5-28.5-6.3-7.4-1.9-18.9-5.3-25.5-7.6-6.6-2.3-19.7-6.2-29-8.5-9.3-2.4-23.1-5.5-30.5-6.9-7.4-1.4-19.8-3.4-27.5-4.5-7.7-1.1-21.9-2.7-31.5-3.5-9.6-0.9-27.2-1.8-39-2.2-12.6-0.4-30.6-0.2-43.5 0.5-12.1 0.7-28.5 1.9-36.5 2.7-8 0.8-22.2 2.6-31.5 4-9.3 1.4-24.7 4.1-34 6-9.3 2-24 5.3-32.5 7.5-8.5 2.2-22.9 6.2-32 9-9.1 2.8-25.1 8.2-35.5 12-10.4 3.9-26 10-34.5 13.6-8.5 3.6-26.3 11.8-39.5 18.3-13.2 6.5-31.4 16.1-40.5 21.3-9.1 5.1-22.1 12.9-29 17.2-6.9 4.3-19.9 12.8-29 18.9-9.1 6.1-26.2 18.3-38 27.2-11.8 8.9-28.5 22-37 29.1-8.5 7.2-21.8 18.6-29.5 25.5-7.7 6.9-21 19.5-29.5 27.9-8.5 8.5-19.3 18.5-24 22.2-4.7 3.8-12.5 9.6-17.5 12.9-5 3.3-13 7.9-18 10.3-5 2.4-12.2 5.3-16 6.5-4 1.2-11.1 2.4-16.5 2.7-7 0.4-11.1 0.1-15.7-1.1-3.5-0.9-9.1-3-12.5-4.7-4.2-2.1-8.8-5.7-13.8-10.8-4.2-4.3-9.6-11.2-12.2-15.6-2.6-4.4-6.5-12.5-12.8-28l-31.9-575-3-8c-1.7-4.4-4.8-11.1-6.9-14.8-2-3.8-4.9-7.6-6.4-8.5-2.6-1.6-2.8-1.6-4.8 0.3-1.2 1.1-2.8 4.3-3.5 7-0.8 2.8-1.9 9.4-2.5 14.8-0.5 5.3-1 13.9-1 19 0 5-8.5 135.7-19 290.2-10.4 154.5-19.5 284.4-20.1 288.5-0.6 4.1-2 11.3-3.1 16-1.1 4.7-3.4 11.9-5 16-1.6 4.1-4.5 10-6.3 13-1.8 3-5.7 7.8-8.7 10.6-2.9 2.8-7.1 6-9.3 7.1-2.2 1.2-6.7 2.6-10 3.2-4.3 0.8-7.8 0.8-12.5 0-3.6-0.6-9.9-2.3-14-3.9-4.1-1.6-11.3-5.3-16-8.2-4.7-3-15-11-23-17.9-8-6.9-24-20.3-35.5-29.9-11.6-9.6-32.3-26.5-46-37.6-13.8-11-34.9-27.7-47-37-12.1-9.3-31.2-23.7-42.5-32-11.3-8.3-29-21.1-39.5-28.4-10.5-7.4-26.7-18.4-36-24.5-9.3-6.1-22.8-14.7-30-19.2-7.2-4.4-19.7-11.9-28-16.5-8.2-4.7-20-11-26-14.1-6-3-16.8-7.9-24-10.9-7.2-3-19.5-7.8-27.5-10.6-8-2.8-21-7.1-29-9.6-8-2.4-22.6-6.4-32.5-8.9-9.9-2.5-26.1-6.1-36-8.1-9.9-1.9-25.9-4.6-35.5-6-9.6-1.4-24.9-3.3-34-4.2-9.5-0.9-30.8-1.8-50-2.1-20.8-0.3-40.1-0.1-51 0.6-9.6 0.7-25.4 2.1-35 3.2-9.6 1.1-25.4 3.1-35 4.5-9.6 1.4-25.4 4.1-35 6-9.6 1.9-21.5 4.6-26.5 6-5 1.4-11.9 3.9-15.5 5.5-3.6 1.7-7.7 4.2-9.3 5.7-1.7 1.7-2.7 3.7-2.7 5.5 0 1.7 1.1 3.7 3.3 5.7 1.7 1.7 6.6 4.3 10.7 5.9 4.1 1.6 12.7 4.1 19 5.5 6.3 1.4 16.9 3.2 23.5 4 6.6 0.9 19.9 2 29.5 2.6 9.6 0.6 28.8 1.5 42.5 2 13.8 0.5 36 1 74 1v33.8c0 21.5 0.5 37.5 1.3 44.2 0.7 5.8 2.4 17 3.8 25 1.4 8 3.8 19.7 5.4 26 1.6 6.3 4.3 15.5 5.9 20.5 1.6 5 4.6 13.3 6.6 18.5 2.1 5.2 6.6 15.1 10.1 22 3.5 6.9 9.4 17.2 13.2 23 3.8 5.8 9.7 14.1 13.3 18.5 3.5 4.3 10.2 11.8 14.9 16.5 4.7 4.7 12.2 11.4 16.5 14.9 4.4 3.6 12 9.1 17 12.3 5 3.2 13.7 8.3 19.5 11.2 5.8 3 15 7.2 20.5 9.4 5.5 2.2 13.9 5.2 27.5 9.2v3.5c0 1.9-0.7 17.1-1.5 33.8-0.8 16.6-1.9 43.5-2.5 59.7-0.5 16.2-1.5 57.2-2.1 91-0.6 33.8-0.8 82.7-0.4 108.5 0.3 25.8 1 63.2 1.6 83 0.5 19.8 1.6 50.6 2.4 68.5 0.9 17.9 2.2 43.1 3 56 0.8 12.9 2.4 35.2 3.6 49.5 1.1 14.3 3.1 37.3 4.5 51 1.3 13.8 3.6 34.7 5 46.5 1.4 11.8 4.1 32.5 6 46 1.9 13.5 5.1 33.7 7 45 1.9 11.3 5.5 30.6 8 43 2.5 12.4 7 32.6 10 45 3 12.4 7.5 29.7 10 38.5 2.6 8.8 7.5 24.6 11.1 35 3.6 10.4 8.7 24.6 11.5 31.5 2.8 6.9 8.4 19.5 12.5 28 4.7 9.8 10.1 23.6 14.7 37.5 4.1 12.1 11.3 31.9 16.1 44 4.8 12.1 12.1 29.4 16.2 38.5 4.1 9.1 12.7 26.8 19.2 39.5 6.5 12.7 15.7 29.8 20.6 38 4.8 8.3 13.5 22.2 19.3 31 5.7 8.8 14.8 21.8 20.1 29 5.4 7.2 14.4 18.6 20.1 25.5 5.7 6.9 18.1 20.2 27.4 29.5 9.4 9.4 22.7 21.6 29.6 27.1 6.9 5.5 18.6 14 26 18.9 7.4 5 19.4 12 26.5 15.7 7.2 3.7 18 8.7 24 11.1 6 2.4 14.8 5.6 19.5 7 4.7 1.5 13.5 3.8 19.5 5.1 6 1.4 16.6 3.2 23.5 4 9.1 1.1 34.4 1.8 92.5 2.7 44 0.6 80.3 1.5 80.6 1.8 0.4 0.3-1.5 67.9-4.1 150.1-2.7 82.2-4.9 149.7-4.9 150 0 0.3-3.3-2.7-7.3-6.6-4-3.9-11.2-10.2-15.9-14-4.8-3.8-15.1-11.6-23-17.4-7.9-5.7-24.5-17.2-36.9-25.5-12.4-8.3-35.5-23.2-51.5-33.1-16-10-39.8-24.5-53-32.4-13.2-7.8-40.7-23.8-61-35.5-20.3-11.7-53.2-30.2-73-41.2-19.8-11-52.9-29.1-73.5-40.3-20.6-11.2-45.4-25-55-30.8-9.6-5.7-26-15.9-36.5-22.5-10.5-6.6-30.9-19.9-45.5-29.7-14.6-9.7-35-23.6-45.5-31-10.5-7.3-28.2-20.1-39.5-28.3-11.3-8.3-29-21.6-39.5-29.5-10.5-8-29.8-23.2-43-33.7-13.2-10.5-33-26.7-44-36-11-9.2-28.5-24.3-39-33.5-10.5-9.2-27.8-24.8-38.5-34.6-10.7-9.8-33.8-32.1-51.4-49.4-17.5-17.3-40.3-40.5-50.6-51.5-10.3-11-25.1-27.2-33-36-7.8-8.8-20.9-23.9-29.1-33.5-8.1-9.6-19.8-23.8-26-31.5-6.2-7.7-11.7-14-12.3-14-0.6 0-1.3 1.6-1.7 3.5-0.4 1.9-1.4 14.8-2.3 28.5-0.9 13.8-2.1 35.3-2.6 48-0.5 12.7-1 31.8-1 42.5 0 10.7 0.5 26 1 34 0.5 8 1.7 18.6 2.5 23.5 0.8 4.9 1.4 9.1 1.3 9.3-0.2 0.1-3.7-2.6-7.8-6-4.1-3.4-12.7-10.7-19-16.2-6.3-5.5-25.3-23.8-42.1-40.6-16.8-16.8-36.4-37-43.5-45-7.2-8-18.4-20.8-25-28.5-6.6-7.7-18.3-21.9-26-31.5-7.7-9.6-20.1-25.6-27.5-35.5-7.4-9.9-17.8-24.1-23.1-31.5-5.2-7.4-17-24.7-26.1-38.5-9-13.7-22.5-35.1-29.9-47.5-7.5-12.4-18.2-30.8-23.8-41-5.7-10.2-15.6-28.8-22.1-41.5-6.5-12.7-15.7-31.3-20.4-41.5-4.8-10.2-12.3-26.8-16.7-37-4.4-10.2-11.8-28-16.3-39.5-4.6-11.5-11-28.4-14.3-37.5-3.3-9.1-9.4-26.8-13.5-39.5-4.2-12.7-10.6-33.3-14.2-46-3.7-12.7-9.3-33.8-12.6-47-3.3-13.2-8-33.5-10.4-45-2.4-11.5-6-29.8-8-40.5-1.9-10.7-5.3-32.1-7.5-47.5-2.2-15.4-4.2-29.9-4.5-32.2-0.3-2.5-1-4.3-1.7-4.3-0.7 0-8.8 10.4-17.9 23.2-9.1 12.8-22.4 31.6-29.5 41.8-7 10.2-19.6 28.8-27.9 41.5-8.4 12.7-18 27.7-21.5 33.5-3.5 5.8-9 15.6-18 33l-0.9-3.7c-0.6-2.1-2.4-10.5-4.1-18.8-1.7-8.2-4.9-25.6-7-38.5-2.2-12.9-5.1-32-6.4-42.5-1.4-10.5-3.4-27.3-4.5-37.5-1.1-10.2-2.7-27.3-3.6-38-0.8-10.7-2-26.7-2.5-35.5-0.6-8.8-1.4-36.5-1.7-61.5-0.4-29-0.1-55.3 0.6-72.5 0.7-14.8 1.9-35.5 2.7-46 0.8-10.5 2.1-25.7 2.9-34 0.9-8.2 2.7-23.5 4-34 1.4-10.5 3.8-27.3 5.5-37.5 1.7-10.2 4.2-24.3 5.6-31.5 1.4-7.2 4-20 5.9-28.5 1.8-8.5 5.2-22.9 7.5-32 2.3-9.1 6.6-24.8 9.5-35 3-10.2 7.9-26.2 11-35.5 3.1-9.3 8.6-24.9 12.2-34.5 3.6-9.6 10.6-27 15.5-38.5 5-11.5 13.4-30 18.8-41 5.4-11 13.3-26.3 17.5-34 4.3-7.7 12-21.2 17.3-30 5.3-8.8 14.7-23.6 21-33 6.3-9.3 16.6-24 23-32.5 6.3-8.5 15.3-20.2 20-26 4.7-5.8 14.7-17.5 22.1-26 7.5-8.5 22.8-24.7 34.1-36 11.3-11.3 28.5-27.5 55.8-51.5l-10.3-20.5c-5.7-11.3-13.1-26.8-16.5-34.5-3.4-7.7-9.2-21.6-13-31-3.7-9.3-9-23.5-11.8-31.5-2.8-8-6.8-19.7-8.7-26-2-6.3-5.4-18-7.6-26-2.2-8-5.5-21.5-7.4-30-1.9-8.5-4.6-22.2-5.9-30.5-1.4-8.2-3.2-21.1-4.1-28.5-0.9-7.4-1.9-23.8-2.2-36.5-0.4-14.5-0.1-28.5 0.6-38 0.7-8.2 2.1-20.4 3.2-27 1.1-6.6 3.3-17.2 4.9-23.5 1.6-6.3 4.5-16 6.4-21.5 1.9-5.5 5.3-14.3 7.6-19.5 2.3-5.2 6.4-13.5 9.2-18.5 2.8-4.9 7.4-12.4 10.2-16.5 2.7-4.1 8.5-11.8 12.7-17 4.2-5.2 12.1-13.8 17.5-19 5.5-5.2 14.2-12.8 19.4-16.9 5.2-4.1 13.1-9.8 17.5-12.6 4.4-2.9 16.1-9.9 26-15.6 9.9-5.6 23.6-12.8 30.5-15.9 6.9-3.2 17.6-7.6 23.8-9.9 6.1-2.2 17.4-5.9 25-8.1 7.5-2.2 20.2-5.4 28.2-7 8-1.6 20.9-3.5 28.7-4.4 7.8-0.8 17.3-1.6 21-1.8 3.7-0.2 9.1-0.5 11.8-0.6zm487.5 973.3c18.1 0.2 31.4 0.9 39 2 6.3 0.8 12.4 1.7 13.5 1.9 1.1 0.2 4.3 2.7 7 5.6 2.8 2.9 5.8 6.4 6.8 7.9 1 1.4 3.5 6 5.6 10.1 2.2 4.1 5.5 12 7.4 17.5 1.9 5.5 5.3 17.2 7.5 26 2.3 8.8 6.4 26.3 9.2 39 2.8 12.7 6.6 28.8 8.5 36 1.8 7.2 5 17.7 7 23.5 2 5.8 5.3 14.1 7.4 18.5 2 4.4 6.1 11.6 9.1 15.9 3 4.3 8.2 10.3 11.5 13.2 3.3 2.9 8.3 6.3 11 7.6 4.4 2 6.4 2.3 17.5 2.2 10.1-0.1 14.3-0.6 22-2.7 5.2-1.4 14.5-4.6 20.5-7.2 6-2.5 14.6-6.7 19-9.2 4.4-2.5 11.4-6.9 15.5-9.6 4.1-2.8 10.7-7.6 14.5-10.6 3.8-3.1 10.5-9 14.9-13.1 4.3-4.1 10.7-11 20.6-23l15.8 14.8c8.6 8.1 21.8 20.1 29.2 26.7 7.4 6.6 18.7 16.4 25 21.6 6.3 5.3 17.1 13.9 24 19.1 6.9 5.2 17.2 12.6 23 16.5 5.8 3.9 14.8 9.6 20 12.8 5.2 3.2 14.9 8.6 21.5 12.1 6.6 3.4 17.4 8.6 24 11.4 6.6 2.8 17.6 7.1 24.5 9.5 6.9 2.3 17.7 5.6 24 7.3 6.3 1.7 17.3 4.2 24.5 5.6 7.2 1.4 19.1 3.2 26.5 4 7.4 0.9 16 1.6 19 1.6 3 0 6.6 0.4 10.4 1.5l-0.7 115c-0.4 63.3-1.1 144-1.7 179.5-0.5 35.5-1.2 103.7-2.5 238.7l39 0.6c21.5 0.3 47.3 1.3 57.5 2.2 10.2 0.8 23.9 2.2 30.5 3 6.6 0.9 18.5 2.7 26.5 4.1 8 1.3 21.7 4.2 30.5 6.4 8.8 2.1 22.8 6.2 31 9 8.3 2.9 21.5 8.3 29.5 12.2 8 3.8 17.9 9 22 11.5 4.1 2.5 11.6 7.6 16.5 11.3 4.9 3.7 13.7 11.7 19.5 17.6 5.8 6 13.4 15.2 16.9 20.4 3.5 5.2 8.5 14 11.1 19.5 2.6 5.5 5.9 13.6 7.4 18 1.4 4.4 3.3 10.9 4.1 14.5 0.9 3.6 1.9 13 2.2 21 0.4 11 0.1 17.3-1.2 26-0.9 6.3-2.8 15.3-4.1 20-1.4 4.7-5.1 13.9-8.3 20.5-3.2 6.6-8.4 15.6-11.6 20-3.2 4.4-8.3 10.9-11.4 14.4-3.1 3.5-9.7 9.8-14.6 13.9-4.9 4.2-13.7 10.7-19.5 14.4-5.8 3.8-14.8 9.1-20 11.8-5.2 2.6-14.5 6.8-20.5 9.3-6 2.5-16 6.1-22 8-6 1.9-11.7 3.7-12.5 3.9-0.8 0.1-1.6 0-1.7-0.5-0.2-0.4 4.3-4.2 10-8.4 5.6-4.3 15.1-12.5 21.1-18.3 6-5.8 14.3-14.6 18.4-19.5 4.2-4.9 10.2-13.1 13.5-18 3.2-4.9 8.3-13.7 11.2-19.5 2.9-5.8 6.9-15.2 8.8-21 1.9-5.8 4.3-14.3 5.3-19 1.5-6.8 1.9-12.6 1.9-29-0.1-18.4-0.3-21.6-2.7-31.5-1.4-6.1-3.7-13.2-5.1-16-1.3-2.7-4.1-7.2-6.2-10-2.1-2.7-5.8-7.2-8.4-9.8-2.5-2.7-8.2-7.7-12.6-11.2-4.4-3.4-11-8.1-14.7-10.4-3.8-2.2-10.3-5.8-14.5-8-4.3-2.1-10.7-5.1-14.3-6.6-3.6-1.5-11.7-4.5-18-6.7-6.3-2.2-18.2-5.7-26.5-7.8-8.2-2.2-21.1-5-28.5-6.4-7.4-1.4-20.9-3.4-30-4.5-9.1-1.1-22.1-2.5-29-3.1-6.9-0.6-26.5-1.5-43.5-2-17.9-0.5-42.4-0.5-58 0.1-14.8 0.5-32.6 1.3-39.5 1.9-6.9 0.6-19.7 2-28.5 3.1-8.8 1.1-22.1 3.1-29.5 4.5-7.4 1.3-18.2 3.6-24 5-5.8 1.3-15.9 4.1-22.5 6-6.6 2-17.2 5.6-23.5 8.1-6.3 2.5-16 6.8-21.5 9.6-5.5 2.8-14.7 8.3-20.5 12.2-5.8 3.8-14.5 10.8-19.4 15.5-4.9 4.7-11.6 12.1-14.9 16.5-3.2 4.4-8.1 12.5-10.8 18-2.6 5.5-5.7 13.4-6.9 17.5-1.1 4.1-2 10-2 13 0 3 0.7 10 1.5 15.5 0.8 5.5 2.9 15.2 4.6 21.5 1.7 6.3 4.9 16.2 7.1 22 2.3 5.8 6.4 15.4 9.3 21.5 2.8 6.1 8 16.2 11.5 22.5 3.5 6.3 9.9 17.5 14.2 24.8 4.3 7.2 8.1 13.2 8.6 13.2 0.4 0 4.5-2.9 9.2-6.4 4.7-3.5 18.2-14.4 30-24.3 11.8-9.8 25.1-20.6 29.5-23.9 4.4-3.4 11.8-8.6 16.5-11.6 4.7-3.1 12.1-7.4 16.5-9.6 4.4-2.2 11.6-5.1 16-6.5 4.4-1.4 12-3.1 17-3.7 5-0.7 11.9-0.9 15.5-0.6 3.6 0.4 8 0.9 9.8 1.1 2 0.3 3.2 1.1 3.2 2 0 0.8 1.7 6.6 3.7 12.8 2.1 6.1 8.5 20.9 14.4 32.7 5.8 11.8 12.3 24 14.3 27 2 3 3.6 6.3 3.6 7.3 0 0.9 0.9 3.7 2 6.2 1.1 2.5 2.5 4.5 3 4.5 0.5 0 0.8 0.4 0.5 1-0.3 0.6 0 1 0.5 1 0.5 0 0.9 0.3 0.8 0.8-0.1 0.4 0.3 1.7 1 3 0.7 1.2 0.9 2.2 0.5 2.2-0.5 0-0.3 0.4 0.3 0.8 0.6 0.4 2.5 4.8 4.2 9.7 1.7 4.9 5.4 15.5 8.2 23.5 2.8 8 6.2 18.8 7.5 24 1.3 5.2 3.1 12.9 4 17 0.9 4.1 2.2 11.9 3 17.3 0.8 5.3 2 16.9 2.5 25.7 0.7 10.8 0.7 21.5 0 32.8-0.6 9.2-1.9 22.3-3 29.2-1 6.9-2.8 16.8-4 22-1.1 5.2-3.2 13.6-7.1 27.5l-24.2-0.4c-13.3-0.1-39.9 0.2-59.2 0.8-19.2 0.6-41.5 1.6-49.5 2.1-8 0.6-21.2 1.7-29.5 2.5-8.2 0.9-21.3 2.5-29 3.6-7.7 1.1-21 3.4-29.5 5-8.5 1.7-21.6 4.8-29 7-7.4 2.1-18 5.6-23.5 7.7-5.5 2.2-13.8 5.9-18.5 8.3-4.7 2.4-8.7 4.5-9 4.7-0.3 0.2-2.4-2.8-4.6-6.5-2.3-3.7-7.6-13.1-11.8-20.8-4.1-7.7-11.7-22.8-16.7-33.5-5-10.7-12.5-27.6-16.6-37.5-4.1-9.9-11.2-28.3-15.8-41-4.6-12.7-11.3-32.7-15-44.5-3.7-11.8-9.1-30.5-12.2-41.5-3-11-7.7-29-10.3-40-2.7-11-6.9-29.9-9.5-42-2.5-12.1-6.6-32.8-9-46-2.4-13.2-6-34.6-7.9-47.5-2-12.9-4.9-34.3-6.5-47.5-1.6-13.2-3.9-33.2-5-44.5-1.2-11.3-2.8-29.1-3.6-39.5-0.8-10.4-2.1-30.5-3-44.5-0.8-14-2-43.7-2.6-66-0.6-22.5-0.8-55.2-0.5-73.5 0.4-18.2 1.1-43.6 1.7-56.5 0.5-12.9 1.6-33.8 2.4-46.5 0.9-12.7 2.5-32.9 3.6-45 1.1-12.1 2.9-30.1 4-40 1.1-9.9 3.4-27.9 5-40 1.7-12.1 4.8-32.8 7-46 2.2-13.2 6.1-34.1 8.5-46.5 2.5-12.4 6.8-32.2 9.6-44 2.8-11.8 7.2-29.6 9.9-39.5 2.7-9.9 7.5-26.3 16.2-55l-2.4-4.5c-1.3-2.4-4.6-6.7-7.4-9.5-2.9-3-8.1-6.6-12.5-8.8-4.1-2.1-10.4-4.6-14-5.7-3.6-1-14.8-3.8-25-6-10.2-2.3-23.7-5.9-30-8-6.3-2-16.2-6-22-8.7-5.8-2.7-14.3-7.3-19-10.2-4.7-2.9-12.1-8.1-16.5-11.6-4.4-3.4-12.7-11.2-18.5-17.1-5.8-6-13.9-15.2-17.9-20.4-4.1-5.2-10.4-14-14.1-19.5-3.7-5.5-10.2-16.1-14.5-23.5-4.3-7.4-10.6-19.3-14-26.5-3.5-7.2-7.9-16.9-9.9-21.7-2-4.9-5.3-13.9-7.5-20-2.1-6.2-5.1-16.7-6.5-23.3-1.9-8.5-2.7-14.8-2.7-21.5 0-5.2 0.3-9.7 0.7-10 0.3-0.3 4.3-0.8 8.7-1.2 4.5-0.3 20.6-0.5 35.7-0.3zm1250.2-0.1c8 0 15 0.5 15.5 0.9 0.4 0.4-0.5 6.3-2 13-1.6 6.7-5.3 20.5-8.2 30.7-2.9 10.2-7.7 24.8-10.5 32.5-2.9 7.7-8.1 20.5-11.6 28.5-3.5 8-9.4 19.9-13 26.5-3.6 6.6-9.5 16.5-13.1 22-3.6 5.5-9.3 13.6-12.7 18-3.3 4.4-9.7 12-14.1 16.9-4.4 5-12.5 13-18 17.9-5.5 4.9-15.4 12.5-22 17-6.6 4.4-17.8 10.8-25 14.3-7.2 3.4-17.3 7.6-22.5 9.2-5.2 1.7-14 4-19.5 5.1-5.5 1.1-14.6 2.4-20.3 2.8-8.5 0.7-10.1 1-9.6 2.3 0.4 0.8 4.6 12.1 9.4 25 4.8 12.9 13.5 37.9 19.3 55.5 5.8 17.6 14 43.7 18.1 58 4.1 14.3 9.7 34.8 12.5 45.5 2.7 10.7 7.1 28.5 9.6 39.5 2.5 11 6.6 29.9 9 42 2.4 12.1 6.2 33 8.4 46.5 2.3 13.5 5.2 32.8 6.5 43 1.4 10.2 3.4 27.3 4.6 38 1.1 10.7 2.6 28.1 3.4 38.5 0.8 10.5 2 31.4 2.7 46.5 0.7 17.1 0.9 42.2 0.6 66.5-0.4 21.5-1.1 46-1.7 54.5-0.6 8.5-1.7 23.4-2.5 33-0.9 9.6-2.7 26.7-4.1 38-1.3 11.3-3.6 27.7-4.9 36.5-1.4 8.8-4.3 25.6-6.5 37.3-2.2 11.6-6.3 31-9 43-2.8 11.9-7.3 30-10.1 40.2-2.8 10.2-7.9 27.7-11.4 39-3.5 11.3-9.7 29.7-13.8 41-4.1 11.3-10.3 27.5-13.7 36-3.4 8.5-9.6 23.2-13.7 32.5-4.1 9.3-13.5 28.9-20.9 43.5-7.3 14.6-17.4 33.7-22.5 42.5-5 8.8-14.1 24-20.3 33.7-6.1 9.8-16.1 24.9-22.3 33.5-6.1 8.7-15.1 20.7-20 26.7-4.8 6.1-9.2 11.1-9.8 11.3-0.6 0.1 1.2-7.1 3.8-16 2.6-8.9 7.7-26.5 11.2-39.2 3.5-12.7 9.3-34.5 12.9-48.5 3.5-14 9.1-37.4 12.4-52 3.3-14.6 8.8-40.2 12.1-57 3.3-16.8 8-42.7 10.5-57.5 2.5-14.8 6.1-38.2 8-52 1.9-13.7 4.6-34.9 6-47 1.4-12.1 3.4-31.9 4.5-44 1.2-12.1 2.7-31.9 3.6-44 0.8-12.1 1.9-33.2 2.6-47 0.6-13.7 1.1-46.4 1.1-72.5 0-26.1-0.5-58.1-1.1-71-0.7-12.9-1.8-33.2-2.7-45-0.8-11.8-2.1-28.7-2.9-37.5-0.9-8.8-2.4-23.9-3.5-33.5-1.1-9.6-3.2-25.8-4.6-36-1.3-10.2-4.1-27.9-6-39.5-1.9-11.5-5-29.3-7-39.5-1.9-10.2-5.7-28.4-8.4-40.5-2.7-12.1-7-30.1-9.5-40-2.5-9.9-7.2-27.2-10.5-38.5-3.2-11.3-8.4-28.4-11.5-38-3.2-9.6-8.6-25.4-12-35-3.5-9.6-9.3-24.7-12.8-33.5-3.6-8.8-9.5-22.5-13.1-30.5-3.7-8-7-14.9-7.4-15.3-0.4-0.5-4.3 1.2-8.7 3.7-4.4 2.4-11.6 5.9-16 7.7-4.4 1.7-12.3 4.3-17.5 5.7-8.5 2.3-11.4 2.6-27.5 2.6-14.2 0.1-19.5-0.3-25-1.7-3.8-1-7.6-2.1-8.4-2.5-1-0.5 0.8-3.7 7-12.2 4.5-6.3 13-17.6 18.8-25 5.7-7.4 15.9-20 22.5-28 6.7-7.9 18.2-21.2 25.8-29.5 7.5-8.2 17.6-18.9 31.3-32.5l5.7 6.7c3.1 3.8 9.6 10.6 14.5 15.3 4.8 4.7 13.1 11.9 18.3 15.9 5.2 4 13.3 9.7 18 12.6 4.7 2.9 12.3 7.1 17 9.5 4.7 2.3 12.3 5.7 17 7.5 4.7 1.8 12.8 4.2 18 5.5 5.9 1.4 12.9 2.3 18.5 2.3 5.7 0 11-0.5 14.5-1.6 3.9-1.1 7.5-3.3 12.3-7.4 3.7-3.2 8.8-8.5 11.2-11.8 2.5-3.3 6.5-9.8 8.9-14.5 2.4-4.7 6-12.8 7.9-18 1.9-5.2 5.4-16.2 7.6-24.5 2.2-8.2 7.2-29.2 11.1-46.5 3.9-17.3 8.7-37.1 10.7-44 1.9-6.9 5.2-16.6 7.2-21.5 2-5 5.5-12.2 7.8-16 2.2-3.9 6-9 8.4-11.5 2.3-2.5 4.2-5.1 4.1-5.7-0.1-0.7 1.5-1.7 3.5-2.2 2.1-0.6 8.3-2.1 13.8-3.5 5.5-1.3 15.2-3.4 21.5-4.5 6.3-1.1 16-2.5 21.5-3.1 5.5-0.5 11.8-1.2 14-1.4 2.2-0.2 10.6-0.3 18.7-0.2zm-621.2 1454.3c16.8 0.2 42 0.8 56 1.4 14 0.5 35 1.6 46.5 2.5 11.5 0.8 31.1 2.6 43.5 4 12.4 1.3 30.4 3.7 40 5.3 9.6 1.6 22.9 4.1 29.5 5.6 6.6 1.4 18.1 4.7 25.5 7.1 7.4 2.5 16.4 6.1 20 8 3.6 2 8.3 5.1 10.5 6.8 2.2 1.8 5.1 5.5 6.4 8.2 1.8 3.7 2.2 5.8 1.7 8.7-0.3 2-1.8 6.1-3.3 9-1.4 2.8-5.1 7.7-8.2 10.8-3.1 3.1-9 7.8-13.1 10.4-4.1 2.7-12.4 7.2-18.5 10.1-6.1 2.9-17.7 7.5-26 10.3-8.2 2.9-24 7.4-35 10.1-11 2.7-29 6.6-40 8.5-11 2-30.3 4.9-43 6.5-12.7 1.6-31.3 3.6-41.5 4.4-10.2 0.9-27 2.1-37.5 2.7-10.5 0.6-36.8 1.1-58.5 1.1-21.7 0-48-0.5-58.5-1.1-10.5-0.7-26.4-1.9-35.5-2.7-9.1-0.8-25.7-2.8-37-4.4-11.3-1.6-28.2-4.5-37.5-6.4-9.3-1.9-24-5.5-32.5-8-8.5-2.4-19.8-6.1-25-8.1-5.2-2.1-14-6-19.5-8.7-5.5-2.8-13.6-7.4-18-10.3-4.4-2.9-11.4-8.8-15.5-13.1-4.1-4.4-8.9-10.6-10.7-13.9-1.8-3.3-3.2-7.5-3.3-9.2 0-1.8 0.6-4.5 1.4-6 0.7-1.6 3.2-4.5 5.5-6.5 2.2-2.1 7.1-5.3 10.9-7.2 3.7-1.8 10.7-4.8 15.7-6.5 5-1.8 14.2-4.5 20.5-6.1 6.3-1.6 17.1-4 24-5.4 6.9-1.3 20.4-3.6 30-5 9.6-1.4 26-3.4 36.5-4.5 10.5-1.2 27.5-2.8 38-3.6 10.5-0.8 28.2-1.9 39.5-2.6 11.3-0.6 35.1-1.5 53-1.9 17.9-0.4 46.2-0.5 63-0.3z"/><path class="b" d="m726 342.7c6.9 0.2 17.2 1.1 23 1.9 5.8 0.8 15.5 2.8 21.5 4.3 6 1.6 15.5 4.6 21 6.6 5.5 2 15.6 6.5 22.5 9.9 6.9 3.5 16.8 8.9 22 12.1 5.2 3.3 14.7 9.8 21 14.6 6.3 4.8 15.5 12.2 20.5 16.5 5 4.3 14.8 13.7 21.9 20.8 7.1 7.2 18.1 19.4 24.6 27.1 6.4 7.7 13.7 16.7 16.3 20 2.6 3.3 4.7 6.4 4.7 7 0 0.6-7.7 4.6-17.2 8.9-9.5 4.4-28.8 13.7-42.8 20.7-14 7.1-35.4 18.3-47.5 24.9-12.1 6.7-31.7 17.9-43.5 25-11.8 7-31 19.1-42.5 26.7-11.5 7.7-27.8 18.8-36 24.8-8.3 5.9-21.3 15.8-29 22-7.7 6.1-17.8 14.4-22.5 18.4-4.7 4-14.4 12.8-21.5 19.5-7.1 6.8-18 17.9-24.2 24.7-6.2 6.8-15 17.2-19.5 23.1-4.6 5.8-10.3 13.8-12.8 17.7-2.7 4.1-5.2 7-6.3 7-1 0.1-3.6-2.5-6.3-6.1-2.5-3.5-5.4-8.7-6.5-11.5-1-2.9-2.4-8.6-3-12.5-0.7-4.1-0.9-11-0.5-15.8 0.3-4.7 1.8-13.2 3.2-19 1.4-5.8 4.5-15.5 7-21.5 2.5-6 7.7-16.9 11.7-24 3.9-7.1 10.9-18.6 15.5-25.5 4.7-6.9 12.1-17.2 16.5-23 4.4-5.8 11.5-14.5 15.6-19.5 4.1-5 10.3-12.3 20.1-23.5l-13.8-0.7c-7.7-0.3-21.4-0.1-31.2 0.5-9.9 0.7-22.5 2.2-29 3.6-6.3 1.3-14.9 3.7-19 5.3-4.1 1.6-10.2 4.7-13.4 6.8-3.3 2.2-7.1 5.5-8.5 7.2-1.4 1.8-3.3 3.3-4.1 3.3-1.3 0-1.4-1.7-0.8-12.2 0.4-7.8 1.4-15 2.8-19.8 1.2-4.1 3.7-10.9 5.6-15 2-4.1 6.1-11.3 9.2-16 3.1-4.7 10.4-13.3 16.2-19.1 5.8-5.9 15-14 20.5-18 5.5-4.1 13.8-9.7 18.5-12.6 4.7-2.8 14.8-8.2 22.5-12.1 7.7-3.8 20.3-9.4 28-12.5 7.7-3 20.5-7.6 28.5-10.2 8-2.5 15.1-5.2 15.8-5.8 1-0.9 1.1-1.8 0.4-3.2-0.5-1.1-3.1-3-5.8-4.2-2.7-1.2-8.7-3.1-13.4-4.2-4.7-1.1-15.5-2.9-24-4-8.5-1.1-23.6-2.5-33.5-3.1-9.9-0.6-23.6-1.4-30.4-1.8-6.8-0.4-12.6-1.1-12.8-1.7-0.2-0.5 3.6-4 8.4-7.7 4.9-3.6 12.8-9.2 17.8-12.3 5-3.1 14-8 20-11 6-2.9 15.5-7 21-9 5.5-2 15-5 21-6.6 6-1.5 16-3.5 22-4.3 6.1-0.8 13.5-1.6 16.5-1.9 3-0.2 11.1-0.3 18 0z"/></svg>